HIERARCHY
ROOT hips
{
  OFFSET 0 10.074487846421558 1.314567655973056
  CHANNELS 6 Xposition Yposition Zposition Yrotation Xrotation Zrotation
  JOINT spine
  {
    OFFSET -7.042773748992335e-31 0.5690686926897363 0
    CHANNELS 3 Yrotation Xrotation Zrotation
    JOINT chest
    {
      OFFSET 0 1.2435964857087873 0
      CHANNELS 3 Yrotation Xrotation Zrotation
      JOINT upperChest
      {
        OFFSET 0 1.194994586872362 0
        CHANNELS 3 Yrotation Xrotation Zrotation
        JOINT neck
        {
          OFFSET 0 1.515103653293861 0
          CHANNELS 3 Yrotation Xrotation Zrotation
          JOINT head
          {
            OFFSET 0 0.8111851616465653 0
            CHANNELS 3 Yrotation Xrotation Zrotation
            JOINT leftEye
            {
              OFFSET 0.27141371691966987 0.7490044407698551 0.18219031050045686
              CHANNELS 3 Yrotation Xrotation Zrotation
              End Site
              {
                OFFSET 0.27141371691966987 0.7490044407698551 0.18219031050045686
              }
            }
            JOINT rightEye
            {
              OFFSET -0.2714136877644943 0.7490044019380786 0.18219040411850668
              CHANNELS 3 Yrotation Xrotation Zrotation
              End Site
              {
                OFFSET -0.2714136877644943 0.7490044019380786 0.18219040411850668
              }
            }
          }
        }
        JOINT leftShoulder
        {
          OFFSET 0.4137993136083964 1.1593397335613034 0
          CHANNELS 3 Yrotation Xrotation Zrotation
          JOINT leftUpperArm
          {
            OFFSET 1.0096991868951026 0 0
            CHANNELS 3 Yrotation Xrotation Zrotation
            JOINT leftLowerArm
            {
              OFFSET 2.418380967671622 0 0
              CHANNELS 3 Yrotation Xrotation Zrotation
              JOINT leftHand
              {
                OFFSET 2.361538296260114 0 0
                CHANNELS 3 Yrotation Xrotation Zrotation
                JOINT leftIndexProximal
                {
                  OFFSET 0.7243699271447109 0.08118285989887508 0.2022042461579805
                  CHANNELS 3 Yrotation Xrotation Zrotation
                  JOINT leftIndexIntermediate
                  {
                    OFFSET 0.36553107045252053 -0.010567764853200323 -0.014102670024158437
                    CHANNELS 3 Yrotation Xrotation Zrotation
                    JOINT leftIndexDistal
                    {
                      OFFSET 0.22505120770060527 -0.007821041598631284 -0.007511611613336286
                      CHANNELS 3 Yrotation Xrotation Zrotation
                      End Site
                      {
                        OFFSET 0.22505120770060527 -0.007821041598631284 -0.007511611613336286
                      }
                    }
                  }
                }
                JOINT leftLittleProximal
                {
                  OFFSET 0.6721063881632002 0.08118279568569564 -0.3209324945517917
                  CHANNELS 3 Yrotation Xrotation Zrotation
                  JOINT leftLittleIntermediate
                  {
                    OFFSET 0.34587329423120616 5.3042709780015684e-8 -5.929537746918179e-8
                    CHANNELS 3 Yrotation Xrotation Zrotation
                    JOINT leftLittleDistal
                    {
                      OFFSET 0.1992782500022232 0.0030983716482184676 0.0038310952896712935
                      CHANNELS 3 Yrotation Xrotation Zrotation
                      End Site
                      {
                        OFFSET 0.1992782500022232 0.0030983716482184676 0.0038310952896712935
                      }
                    }
                  }
                }
                JOINT leftMiddleProximal
                {
                  OFFSET 0.7301229696860206 0.08118412848995638 0.022516891543707507
                  CHANNELS 3 Yrotation Xrotation Zrotation
                  JOINT leftMiddleIntermediate
                  {
                    OFFSET 0.4076277831942017 -0.000001240188283180288 -1.6203245635504349e-7
                    CHANNELS 3 Yrotation Xrotation Zrotation
                    JOINT leftMiddleDistal
                    {
                      OFFSET 0.2514739255593972 0.0000013850839168938478 -1.8644847207816007e-8
                      CHANNELS 3 Yrotation Xrotation Zrotation
                      End Site
                      {
                        OFFSET 0.2514739255593972 0.0000013850839168938478 -1.8644847207816007e-8
                      }
                    }
                  }
                }
                JOINT leftRingProximal
                {
                  OFFSET 0.7218060861525873 0.08118280646416753 -0.1494689818508163
                  CHANNELS 3 Yrotation Xrotation Zrotation
                  JOINT leftRingIntermediate
                  {
                    OFFSET 0.3781267508900358 0.000001373626195677602 -1.4143108284514483e-7
                    CHANNELS 3 Yrotation Xrotation Zrotation
                    JOINT leftRingDistal
                    {
                      OFFSET 0.21814333268795483 -0.0027137626495670197 -0.004991775417842292
                      CHANNELS 3 Yrotation Xrotation Zrotation
                      End Site
                      {
                        OFFSET 0.21814333268795483 -0.0027137626495670197 -0.004991775417842292
                      }
                    }
                  }
                }
                JOINT leftThumbProximal
                {
                  OFFSET 0.10743676110519984 -0.16423092885053192 -0.07708859146227388
                  CHANNELS 3 Yrotation Xrotation Zrotation
                  JOINT leftThumbIntermediate
                  {
                    OFFSET 0.40350402100066307 -0.01735099334274981 0.315629965828783
                    CHANNELS 3 Yrotation Xrotation Zrotation
                    JOINT leftThumbDistal
                    {
                      OFFSET 0.2320014489535681 -0.01842351809041043 0.21271298411519196
                      CHANNELS 3 Yrotation Xrotation Zrotation
                      End Site
                      {
                        OFFSET 0.2320014489535681 -0.01842351809041043 0.21271298411519196
                      }
                    }
                  }
                }
              }
            }
          }
        }
        JOINT rightShoulder
        {
          OFFSET -0.41379931360839656 1.1593397335613034 0
          CHANNELS 3 Yrotation Xrotation Zrotation
          JOINT rightUpperArm
          {
            OFFSET -1.0096991868951024 0 0
            CHANNELS 3 Yrotation Xrotation Zrotation
            JOINT rightLowerArm
            {
              OFFSET -2.4183809676716232 0 0
              CHANNELS 3 Yrotation Xrotation Zrotation
              JOINT rightHand
              {
                OFFSET -2.3615382962601132 0 0
                CHANNELS 3 Yrotation Xrotation Zrotation
                JOINT rightIndexProximal
                {
                  OFFSET -0.7243699271447109 0.08118285989887508 0.2022042461579805
                  CHANNELS 3 Yrotation Xrotation Zrotation
                  JOINT rightIndexIntermediate
                  {
                    OFFSET -0.36553107045252053 -0.010567764853200323 -0.014102670024158437
                    CHANNELS 3 Yrotation Xrotation Zrotation
                    JOINT rightIndexDistal
                    {
                      OFFSET -0.22505120770060527 -0.007821041598631284 -0.007511611613336286
                      CHANNELS 3 Yrotation Xrotation Zrotation
                      End Site
                      {
                        OFFSET -0.22505120770060527 -0.007821041598631284 -0.007511611613336286
                      }
                    }
                  }
                }
                JOINT rightLittleProximal
                {
                  OFFSET -0.6721063881632002 0.08118279568569564 -0.3209324945517917
                  CHANNELS 3 Yrotation Xrotation Zrotation
                  JOINT rightLittleIntermediate
                  {
                    OFFSET -0.34587329423120616 5.3042709780015684e-8 -5.929537746918179e-8
                    CHANNELS 3 Yrotation Xrotation Zrotation
                    JOINT rightLittleDistal
                    {
                      OFFSET -0.1992782500022232 0.0030983716482184676 0.0038310952896712935
                      CHANNELS 3 Yrotation Xrotation Zrotation
                      End Site
                      {
                        OFFSET -0.1992782500022232 0.0030983716482184676 0.0038310952896712935
                      }
                    }
                  }
                }
                JOINT rightMiddleProximal
                {
                  OFFSET -0.7301229696860206 0.08118412848995638 0.022516891543707507
                  CHANNELS 3 Yrotation Xrotation Zrotation
                  JOINT rightMiddleIntermediate
                  {
                    OFFSET -0.4076277831942017 -0.000001240188283180288 -1.6203245635504349e-7
                    CHANNELS 3 Yrotation Xrotation Zrotation
                    JOINT rightMiddleDistal
                    {
                      OFFSET -0.2514739255593972 0.0000013850839168938478 -1.8644847207816007e-8
                      CHANNELS 3 Yrotation Xrotation Zrotation
                      End Site
                      {
                        OFFSET -0.2514739255593972 0.0000013850839168938478 -1.8644847207816007e-8
                      }
                    }
                  }
                }
                JOINT rightRingProximal
                {
                  OFFSET -0.7218060861525873 0.08118280646416753 -0.1494689818508163
                  CHANNELS 3 Yrotation Xrotation Zrotation
                  JOINT rightRingIntermediate
                  {
                    OFFSET -0.3781267508900358 0.000001373626195677602 -1.4143108284514483e-7
                    CHANNELS 3 Yrotation Xrotation Zrotation
                    JOINT rightRingDistal
                    {
                      OFFSET -0.21814333268795483 -0.0027137626495670197 -0.004991775417842292
                      CHANNELS 3 Yrotation Xrotation Zrotation
                      End Site
                      {
                        OFFSET -0.21814333268795483 -0.0027137626495670197 -0.004991775417842292
                      }
                    }
                  }
                }
                JOINT rightThumbProximal
                {
                  OFFSET -0.10743676110519984 -0.16423092885053192 -0.07708859146227388
                  CHANNELS 3 Yrotation Xrotation Zrotation
                  JOINT rightThumbIntermediate
                  {
                    OFFSET -0.40350402100066307 -0.01735099334274981 0.315629965828783
                    CHANNELS 3 Yrotation Xrotation Zrotation
                    JOINT rightThumbDistal
                    {
                      OFFSET -0.2320014489535681 -0.01842351809041043 0.21271298411519196
                      CHANNELS 3 Yrotation Xrotation Zrotation
                      End Site
                      {
                        OFFSET -0.2320014489535681 -0.01842351809041043 0.21271298411519196
                      }
                    }
                  }
                }
              }
            }
          }
        }
      }
    }
  }
  JOINT leftUpperLeg
  {
    OFFSET 0.8487163290887698 -0.43932186100277326 0
    CHANNELS 3 Yrotation Xrotation Zrotation
    JOINT leftLowerLeg
    {
      OFFSET 0 -3.882816707004296 0
      CHANNELS 3 Yrotation Xrotation Zrotation
      JOINT leftFoot
      {
        OFFSET 0 -4.570431027442807 0.004629272230691511
        CHANNELS 3 Yrotation Xrotation Zrotation
        JOINT leftToes
        {
          OFFSET 0 -0.698875637876343 1.214565366696912
          CHANNELS 3 Yrotation Xrotation Zrotation
          End Site
          {
            OFFSET 0 -0.698875637876343 1.214565366696912
          }
        }
      }
    }
  }
  JOINT rightUpperLeg
  {
    OFFSET -0.8487163290887698 -0.43932186100277326 0
    CHANNELS 3 Yrotation Xrotation Zrotation
    JOINT rightLowerLeg
    {
      OFFSET 0 -3.882816707004296 0
      CHANNELS 3 Yrotation Xrotation Zrotation
      JOINT rightFoot
      {
        OFFSET 0 -4.570431027442807 0.004629272230691511
        CHANNELS 3 Yrotation Xrotation Zrotation
        JOINT rightToes
        {
          OFFSET 0 -0.698875637876343 1.214565366696912
          CHANNELS 3 Yrotation Xrotation Zrotation
          End Site
          {
            OFFSET 0 -0.698875637876343 1.214565366696912
          }
        }
      }
    }
  }
}
MOTION
Frames: 4
Frame Time: 0.03333333333333333
0.018663516268134117 -8.807053964661915 -0.9869853258132935 -40.7980146099492 -85.30960790088896 41.148143889402085 0.6902283579678039 9.865324605228501 -1.1909754930574137 -2.653155084400127 16.181632382904304 -1.66193123479198 0 0 0 -1.6486568959262986 13.329763025497053 -0.6545795961957126 -9.20864896809021 19.88221258850164 -2.4717564090587167 0 0 0 0 0 0 -15.26948838624475 0.5392881100079249 -7.17511321659957 -42.477524606652274 -29.70252371562902 -18.403098426464442 -26.290373746640437 0.07655678506151106 0.3278179257067867 42.226466269619266 -47.76152391898691 -92.13055759508958 -1.0642259655959994 0.014077843779211256 -7.578175071389805 1.5318500547544782 0.23428142411080288 -17.390518237467866 0.7174868627074511 0.05044345816213111 -8.048025260964485 5.220993697329674 0.8408516024061452 -27.11215839195326 1.534377086548616 0.23504902641774406 -17.41986808602456 1.4573096996366668 0.2115316258978013 -16.519509341427746 2.4613852522689355 -0.10432209251752317 -15.73504578962496 1.5343137312918471 0.2350190907274032 -17.41921839306809 1.6201011832403416 0.26278575284491057 -18.426944165995295 3.377510675859626 0.08921545339202684 -21.171906540923636 1.8304309514337351 0.33797415422997457 -20.923343706208165 1.5737140049374756 0.24755929586636566 -17.881532033012597 2.221022819858051 -0.6675809321546166 4.783276650365596 26.11895529487397 10.71834294595826 21.928789268569215 3.766502786165244 -13.790934051221674 8.085590198179894 21.980929969487654 1.2112025961331385 5.881478633303966 44.51522372875056 -22.154994345012245 24.77291868455268 43.783670778679266 0.20577923444839935 -0.5120996488612697 -6.029141568125249 -60.53731588852779 37.47700793189742 1.3523663251824736 0.03257752281662686 6.812352110254767 -1.17492122312356 0.18005172680703332 17.4250869770725 -0.5505072677403224 0.038819776654099414 8.0664562907235 -4.55604582843719 0.6706830634397801 26.473451020488152 -1.176413373196111 0.1805016810860878 17.44819225807317 -1.1172272280911242 0.16243054705137694 16.544255999859327 -2.014690696540153 -0.16056720534665983 15.030780812028661 -1.1765166585438975 0.180562379357558 17.449853463186486 -1.2423084832596978 0.20189044430265513 18.45937901323972 -2.8192215081210787 -0.014544287684147068 20.50022378504028 -1.4035641121674354 0.2596542119664087 20.96070410950091 -1.206505616797472 0.19011027338814926 17.90932636295544 -0.2236000778284809 -1.6665162879997801 -4.207896447879985 -30.668904516267744 11.047831698573832 -22.20107077702639 -3.8595086848714084 -15.534968090661808 -11.622282733753996 7.805316550216526 -28.804417705975638 1.0722711970183656 -13.691183496260338 46.13425192362534 -11.232860023769806 -18.38922979691728 41.7432872265055 -24.554282099973072 0.000005297131503768467 8.905688694704345 0.000006386191134365649 -7.571039797221972 -27.30823563569812 -3.5263578500465145 12.8935638665425 39.50741504624936 10.838896987088786 8.656037696171753 35.58544882116131 22.10778927425618 -0.000002903688857994001 5.662634976646151 0.000011260801437778886
0.04329942911863327 -8.80717436604436 -0.9760453701019287 -28.35401395597408 -85.66744823309824 28.339101943244323 1.2581361198300811 10.03018066029197 -1.195795174317826 -2.047273588648416 16.47539228466645 -1.7876508319366744 0 0 0 -1.709312996743213 13.346334392549414 -0.4369234335984853 -9.437521764083355 19.777358749415715 -1.9592162990859778 0 0 0 0 0 0 -14.709727978742734 0.5916854184500063 -6.463204271278629 -42.1944606995385 -29.340086621600424 -17.459609411186555 -26.1417515219463 0.07570682596589878 0.32610122886928405 41.8174258040329 -46.58631726782026 -92.38319258388834 -1.0642259655959994 0.014077843779211256 -7.578175071389805 1.5318500547544782 0.23428142411080288 -17.390518237467866 0.7174868627074511 0.05044345816213111 -8.048025260964485 5.220993697329674 0.8408516024061452 -27.11215839195326 1.534377086548616 0.23504902641774406 -17.41986808602456 1.4573096996366668 0.2115316258978013 -16.519509341427746 2.4613852522689355 -0.10432209251752317 -15.73504578962496 1.5343137312918471 0.2350190907274032 -17.41921839306809 1.6201011832403416 0.26278575284491057 -18.426944165995295 3.377510675859626 0.08921545339202684 -21.171906540923636 1.8304309514337351 0.33797415422997457 -20.923343706208165 1.5737140049374756 0.24755929586636566 -17.881532033012597 2.221022819858051 -0.6675809321546166 4.783276650365596 26.11895529487397 10.71834294595826 21.928789268569215 3.766502786165244 -13.790934051221674 8.085590198179894 22.77136564559499 1.227610825677472 5.917013008979567 44.89089558042538 -22.528668724508208 25.72024045911052 43.85533222318645 0.20640458766913602 -0.5127818827633722 -4.621620806826234 -62.279332480104515 34.91301101397134 1.3523663251824736 0.03257752281662686 6.812352110254767 -1.17492122312356 0.18005172680703332 17.4250869770725 -0.5505072677403224 0.038819776654099414 8.0664562907235 -4.55604582843719 0.6706830634397801 26.473451020488152 -1.176413373196111 0.1805016810860878 17.44819225807317 -1.1172272280911242 0.16243054705137694 16.544255999859327 -2.014690696540153 -0.16056720534665983 15.030780812028661 -1.1765166585438975 0.180562379357558 17.449853463186486 -1.2423084832596978 0.20189044430265513 18.45937901323972 -2.8192215081210787 -0.014544287684147068 20.50022378504028 -1.4035641121674354 0.2596542119664087 20.96070410950091 -1.206505616797472 0.19011027338814926 17.90932636295544 -0.2236000778284809 -1.6665162879997801 -4.207896447879985 -30.668904516267744 11.047831698573832 -22.20107077702639 -3.8595086848714084 -15.534968090661808 -11.622282733753996 6.839771250680342 -29.334874360278825 0.9077538888729372 -13.714322551843695 46.49230315908991 -10.739573868136139 -18.62945840849099 42.016970021917444 -24.508064721818478 -0.0000017832354661164006 8.907727329107432 2.0624552643672787e-7 -8.499585470196127 -27.440727159004567 -3.4685417764921485 12.891873100606643 39.46088784059454 11.063244150617274 8.139472445152906 35.53610096290282 22.47480965011268 -0.0000026378967079933873 5.760337945703429 0.000005845090621018652
0.058188360184431076 -8.807399075555164 -0.9695214033126831 -20.28136167728155 -85.74927373684227 20.083827753566478 1.5592426706231417 10.118853087632445 -1.1673628518102663 -1.6871147749112365 16.628017601079474 -1.8162192521539726 0 0 0 -1.7450806890723685 13.33827582452913 -0.2951553034540118 -9.539632332542169 19.777763401531523 -1.7368987461573109 0 0 0 0 0 0 -14.566870206237894 0.624949247750876 -6.083573489729097 -42.042260066275055 -29.256702795980313 -17.070125637036135 -26.03328351129241 0.07509073436517673 0.32486241012167116 42.17419655912963 -46.089527016250926 -92.65958675766049 -1.0642259655959994 0.014077843779211256 -7.578175071389805 1.5318500547544782 0.23428142411080288 -17.390518237467866 0.7174868627074511 0.05044345816213111 -8.048025260964485 5.220993697329674 0.8408516024061452 -27.11215839195326 1.534377086548616 0.23504902641774406 -17.41986808602456 1.4573096996366668 0.2115316258978013 -16.519509341427746 2.4613852522689355 -0.10432209251752317 -15.73504578962496 1.5343137312918471 0.2350190907274032 -17.41921839306809 1.6201011832403416 0.26278575284491057 -18.426944165995295 3.377510675859626 0.08921545339202684 -21.171906540923636 1.8304309514337351 0.33797415422997457 -20.923343706208165 1.5737140049374756 0.24755929586636566 -17.881532033012597 2.221022819858051 -0.6675809321546166 4.783276650365596 26.11895529487397 10.71834294595826 21.928789268569215 3.766502786165244 -13.790934051221674 8.085590198179894 23.129390367346968 1.2301251270125857 5.955052866558241 45.07748209758206 -22.604558776608 26.037137276967464 43.83357962378846 0.2062192108644046 -0.5125662815910657 -3.5894636781966454 -63.18587675736858 33.31612964398905 1.3523663251824736 0.03257752281662686 6.812352110254767 -1.17492122312356 0.18005172680703332 17.4250869770725 -0.5505072677403224 0.038819776654099414 8.0664562907235 -4.55604582843719 0.6706830634397801 26.473451020488152 -1.176413373196111 0.1805016810860878 17.44819225807317 -1.1172272280911242 0.16243054705137694 16.544255999859327 -2.014690696540153 -0.16056720534665983 15.030780812028661 -1.1765166585438975 0.180562379357558 17.449853463186486 -1.2423084832596978 0.20189044430265513 18.45937901323972 -2.8192215081210787 -0.014544287684147068 20.50022378504028 -1.4035641121674354 0.2596542119664087 20.96070410950091 -1.206505616797472 0.19011027338814926 17.90932636295544 -0.2236000778284809 -1.6665162879997801 -4.207896447879985 -30.668904516267744 11.047831698573832 -22.20107077702639 -3.8595086848714084 -15.534968090661808 -11.622282733753996 6.302508210108622 -29.65956554291055 0.786504246812145 -13.73150325382875 46.70620117067547 -10.488947013081242 -18.782418075109554 42.13765577977109 -24.48291753202347 -0.000005889157273871635 8.900260745587827 -0.0000023207528928077472 -9.099554698263162 -27.524321090957084 -3.4868303023203495 12.888225747094376 39.407133780467014 11.195099728548131 7.851380814283051 35.567553299996604 22.76360298502147 -0.000001640363662578838 5.835196836560051 0.0000074200316507448845
0.09188017249107361 -8.807662051247913 -0.9544934034347534 -3.0772659082873424 -85.60207541152694 2.545261821489473 2.1839268333278397 10.303849797540808 -1.0584788012726207 -0.9073502741729398 16.947996314022962 -1.812734015543759 0 0 0 -1.8226043424235798 13.327330852253116 -0.03828539789927067 -9.803772075131825 19.796434768939665 -1.3165012487505559 0 0 0 0 0 0 -14.463201665802307 0.6828240913725808 -5.467247736047487 -41.72516342181748 -29.28825399824444 -16.32986145813617 -25.854854824550767 0.0740806525847425 0.32277029897854614 42.94291301958571 -45.06470972688818 -93.02073447116057 -1.0642259655959994 0.014077843779211256 -7.578175071389805 1.5318500547544782 0.23428142411080288 -17.390518237467866 0.7174868627074511 0.05044345816213111 -8.048025260964485 5.220993697329674 0.8408516024061452 -27.11215839195326 1.534377086548616 0.23504902641774406 -17.41986808602456 1.4573096996366668 0.2115316258978013 -16.519509341427746 2.4613852522689355 -0.10432209251752317 -15.73504578962496 1.5343137312918471 0.2350190907274032 -17.41921839306809 1.6201011832403416 0.26278575284491057 -18.426944165995295 3.377510675859626 0.08921545339202684 -21.171906540923636 1.8304309514337351 0.33797415422997457 -20.923343706208165 1.5737140049374756 0.24755929586636566 -17.881532033012597 2.221022819858051 -0.6675809321546166 4.783276650365596 26.11895529487397 10.71834294595826 21.928789268569215 3.766502786165244 -13.790934051221674 8.085590198179894 23.81452229454231 1.246815498305372 5.957273693417257 45.34866840855851 -22.792049521732157 26.571026647436053 43.70699539134531 0.2051025077618147 -0.5114031453098897 -1.2668664981416888 -65.01017158062683 30.178244143060983 1.3523663251824736 0.03257752281662686 6.812352110254767 -1.17492122312356 0.18005172680703332 17.4250869770725 -0.5505072677403224 0.038819776654099414 8.0664562907235 -4.55604582843719 0.6706830634397801 26.473451020488152 -1.176413373196111 0.1805016810860878 17.44819225807317 -1.1172272280911242 0.16243054705137694 16.544255999859327 -2.014690696540153 -0.16056720534665983 15.030780812028661 -1.1765166585438975 0.180562379357558 17.449853463186486 -1.2423084832596978 0.20189044430265513 18.45937901323972 -2.8192215081210787 -0.014544287684147068 20.50022378504028 -1.4035641121674354 0.2596542119664087 20.96070410950091 -1.206505616797472 0.19011027338814926 17.90932636295544 -0.2236000778284809 -1.6665162879997801 -4.207896447879985 -30.668904516267744 11.047831698573832 -22.20107077702639 -3.8595086848714084 -15.534968090661808 -11.622282733753996 5.206112770738439 -30.400816588274918 0.46710347470151004 -13.782958996184083 47.189026538366946 -10.055394719951387 -19.219390475387844 42.33712332839123 -24.42853361758705 -0.000003942787130602613 8.90088381924004 -0.0000032927349511490004 -10.447983611540147 -27.78077582320501 -3.6209187906928526 12.987918623997059 39.314729603131724 11.511944401145218 6.946389995029455 35.60671702496628 23.385761178453013 -0.0000055715868389744666 5.926158469401356 0.0000020816894966182277
